<svg width="22" height="22" viewBox="0 0 22 22" fill="none" xmlns="http://www.w3.org/2000/svg">
<path d="M19.2499 11.7242C19.1057 13.2845 18.5201 14.7715 17.5616 16.0112C16.6032 17.2509 15.3114 18.192 13.8376 18.7243C12.3638 19.2567 10.7689 19.3583 9.23945 19.0173C7.71001 18.6762 6.30932 17.9067 5.20128 16.7986C4.09325 15.6906 3.32369 14.2899 2.98266 12.7605C2.64163 11.231 2.74323 9.63608 3.27558 8.16227C3.80793 6.68847 4.749 5.39675 5.98869 4.43827C7.22837 3.47979 8.71539 2.8942 10.2757 2.75C9.3622 3.98591 8.9226 5.50866 9.0369 7.0413C9.15119 8.57393 9.81178 10.0146 10.8985 11.1014C11.9853 12.1881 13.426 12.8487 14.9586 12.963C16.4912 13.0773 18.014 12.6377 19.2499 11.7242Z" stroke="#1E1E1E" stroke-width="2" stroke-linecap="round" stroke-linejoin="round"/>
</svg>
