<svg width="16" height="14" viewBox="0 0 16 14" fill="none" xmlns="http://www.w3.org/2000/svg">
<path d="M7.04892 0.8381C7.35327 -0.072631 8.64146 -0.0726289 8.94581 0.838102L9.96278 3.88129C10.0991 4.28926 10.4811 4.56434 10.9112 4.56434H14.1411C15.1167 4.56434 15.5149 5.81826 14.7181 6.38111L12.1539 8.19251C11.7935 8.44708 11.6425 8.90775 11.7824 9.32623L12.7732 12.2911C13.0794 13.2075 12.0369 13.9822 11.2478 13.4248L8.57433 11.5363C8.22848 11.2919 7.76625 11.2919 7.4204 11.5363L4.74696 13.4248C3.9578 13.9823 2.91531 13.2074 3.22155 12.2911L4.21235 9.32622C4.35219 8.90775 4.20125 8.44708 3.84087 8.19251L1.27662 6.3811C0.479852 5.81826 0.878076 4.56434 1.85359 4.56434H5.0835C5.51365 4.56434 5.89561 4.28926 6.03194 3.88129L7.04892 0.8381Z" fill="#FFC400"/>
</svg>
